<svg xmlns="http://www.w3.org/2000/svg" viewBox="0 0 120 120" role="img" aria-label="QualiBug AI"><defs><linearGradient id="q" x1="12%" y1="90%" x2="90%" y2="10%"><stop offset="0" stop-color="#2563EB"/><stop offset=".55" stop-color="#0EA5E9"/><stop offset="1" stop-color="#2DD4BF"/></linearGradient></defs><path d="M88 25A43 43 0 1 0 87 95M78 82l26 26" fill="none" stroke="url(#q)" stroke-width="13" stroke-linecap="round"/><path d="M27 64 58 44 92 62 61 83 27 64Z" fill="rgba(14,165,233,0.11)" stroke="#38BDF8" stroke-width="2.5" stroke-linejoin="round"/><path d="M39 57 73 76" fill="none" stroke="#38BDF8" stroke-width="1.5" opacity=".55"/><path d="M49 50 83 69" fill="none" stroke="#38BDF8" stroke-width="1.5" opacity=".55"/><path d="M42 74 73 53" fill="none" stroke="#38BDF8" stroke-width="1.5" opacity=".55"/><path d="M54 81 85 60" fill="none" stroke="#38BDF8" stroke-width="1.5" opacity=".55"/><path d="M31 66c11-2 17 2 23-4 7-7 10-14 21-11 7 2 9 7 15 8" fill="none" stroke="#7DD3FC" stroke-width="3.5" stroke-linecap="round"/><circle cx="31" cy="66" r="4.5" fill="#3B82F6"/><circle cx="54" cy="62" r="4.5" fill="#22D3EE"/><circle cx="75" cy="51" r="4.5" fill="#2DD4BF"/><circle cx="90" cy="59" r="4.5" fill="#38BDF8"/></svg>
